<svg width="100%" viewBox="0 0 680 280" role="img"><title>Partition and file pruning</title><desc>Seven daily partitions, Mar 10 to Mar 16, each holding three files. A query for Mar 12 to Mar 13 and one card reads only those two partitions, and within each only one file, thanks to clustering by card. All other partitions and files are skipped.</desc>
<g class="c-gray"><rect x="45" y="60" width="80" height="160" rx="4" stroke-width="0.5"/><text class="th" x="85" y="80" text-anchor="middle" dominant-baseline="central">Mar 10</text></g>
<g class="c-gray"><rect x="130" y="60" width="80" height="160" rx="4" stroke-width="0.5"/><text class="th" x="170" y="80" text-anchor="middle" dominant-baseline="central">Mar 11</text></g>
<g class="c-teal"><rect x="215" y="60" width="80" height="160" rx="4" stroke-width="1"/><text class="th" x="255" y="80" text-anchor="middle" dominant-baseline="central">Mar 12</text></g>
<g class="c-teal"><rect x="300" y="60" width="80" height="160" rx="4" stroke-width="1"/><text class="th" x="340" y="80" text-anchor="middle" dominant-baseline="central">Mar 13</text></g>
<g class="c-gray"><rect x="385" y="60" width="80" height="160" rx="4" stroke-width="0.5"/><text class="th" x="425" y="80" text-anchor="middle" dominant-baseline="central">Mar 14</text></g>
<g class="c-gray"><rect x="470" y="60" width="80" height="160" rx="4" stroke-width="0.5"/><text class="th" x="510" y="80" text-anchor="middle" dominant-baseline="central">Mar 15</text></g>
<g class="c-gray"><rect x="555" y="60" width="80" height="160" rx="4" stroke-width="0.5"/><text class="th" x="595" y="80" text-anchor="middle" dominant-baseline="central">Mar 16</text></g>
<rect x="55" y="100" width="60" height="30" rx="2" fill="none" stroke="var(--border-strong)" stroke-width="0.5"/><rect x="55" y="138" width="60" height="30" rx="2" fill="none" stroke="var(--border-strong)" stroke-width="0.5"/><rect x="55" y="176" width="60" height="30" rx="2" fill="none" stroke="var(--border-strong)" stroke-width="0.5"/>
<rect x="140" y="100" width="60" height="30" rx="2" fill="none" stroke="var(--border-strong)" stroke-width="0.5"/><rect x="140" y="138" width="60" height="30" rx="2" fill="none" stroke="var(--border-strong)" stroke-width="0.5"/><rect x="140" y="176" width="60" height="30" rx="2" fill="none" stroke="var(--border-strong)" stroke-width="0.5"/>
<rect x="225" y="100" width="60" height="30" rx="2" fill="none" stroke="var(--border-strong)" stroke-width="0.5"/><g class="c-coral"><rect x="225" y="138" width="60" height="30" rx="2" stroke-width="0.5"/></g><rect x="225" y="176" width="60" height="30" rx="2" fill="none" stroke="var(--border-strong)" stroke-width="0.5"/>
<g class="c-coral"><rect x="310" y="100" width="60" height="30" rx="2" stroke-width="0.5"/></g><rect x="310" y="138" width="60" height="30" rx="2" fill="none" stroke="var(--border-strong)" stroke-width="0.5"/><rect x="310" y="176" width="60" height="30" rx="2" fill="none" stroke="var(--border-strong)" stroke-width="0.5"/>
<rect x="395" y="100" width="60" height="30" rx="2" fill="none" stroke="var(--border-strong)" stroke-width="0.5"/><rect x="395" y="138" width="60" height="30" rx="2" fill="none" stroke="var(--border-strong)" stroke-width="0.5"/><rect x="395" y="176" width="60" height="30" rx="2" fill="none" stroke="var(--border-strong)" stroke-width="0.5"/>
<rect x="480" y="100" width="60" height="30" rx="2" fill="none" stroke="var(--border-strong)" stroke-width="0.5"/><rect x="480" y="138" width="60" height="30" rx="2" fill="none" stroke="var(--border-strong)" stroke-width="0.5"/><rect x="480" y="176" width="60" height="30" rx="2" fill="none" stroke="var(--border-strong)" stroke-width="0.5"/>
<rect x="565" y="100" width="60" height="30" rx="2" fill="none" stroke="var(--border-strong)" stroke-width="0.5"/><rect x="565" y="138" width="60" height="30" rx="2" fill="none" stroke="var(--border-strong)" stroke-width="0.5"/><rect x="565" y="176" width="60" height="30" rx="2" fill="none" stroke="var(--border-strong)" stroke-width="0.5"/>
<g class="c-teal"><rect x="45" y="246" width="12" height="12" rx="2" stroke-width="0.5"/></g><text class="ts" x="65" y="252" dominant-baseline="central">Partition kept by date filter</text>
<g class="c-coral"><rect x="275" y="246" width="12" height="12" rx="2" stroke-width="0.5"/></g><text class="ts" x="295" y="252" dominant-baseline="central">File actually read (min/max stats)</text>
</svg>