<svg width="100%" viewBox="0 0 680 480" role="img"><title>Modeling stage subtopics</title><desc>Five steps top to bottom: baseline, model selection, training setup, scaling training, tuning and debugging, with a dashed loop from tuning back to model selection.</desc><defs><marker id="arrow" viewBox="0 0 10 10" refX="8" refY="5" markerWidth="6" markerHeight="6" orient="auto-start-reverse"><path d="M2 1L8 5L2 9" fill="none" stroke="context-stroke" stroke-width="1.5" stroke-linecap="round" stroke-linejoin="round"/></marker></defs>
<g class="node c-teal"><rect x="190" y="40" width="300" height="56" rx="4" stroke-width="0.5"/><text class="th" x="340" y="58" text-anchor="middle" dominant-baseline="central">Baseline</text><text class="ts" x="340" y="80" text-anchor="middle" dominant-baseline="central">Heuristic or simple model</text></g>
<g class="node c-teal"><rect x="190" y="126" width="300" height="56" rx="4" stroke-width="0.5"/><text class="th" x="340" y="144" text-anchor="middle" dominant-baseline="central">Model selection</text><text class="ts" x="340" y="166" text-anchor="middle" dominant-baseline="central">Quality vs latency vs cost</text></g>
<g class="node c-teal"><rect x="190" y="212" width="300" height="56" rx="4" stroke-width="0.5"/><text class="th" x="340" y="230" text-anchor="middle" dominant-baseline="central">Training setup</text><text class="ts" x="340" y="252" text-anchor="middle" dominant-baseline="central">Loss, splits, imbalance</text></g>
<g class="node c-teal"><rect x="190" y="298" width="300" height="56" rx="4" stroke-width="0.5"/><text class="th" x="340" y="316" text-anchor="middle" dominant-baseline="central">Scaling training</text><text class="ts" x="340" y="338" text-anchor="middle" dominant-baseline="central">Distributed, hardware</text></g>
<g class="node c-teal"><rect x="190" y="384" width="300" height="56" rx="4" stroke-width="0.5"/><text class="th" x="340" y="402" text-anchor="middle" dominant-baseline="central">Tuning and debugging</text><text class="ts" x="340" y="424" text-anchor="middle" dominant-baseline="central">Hyperparams, overfit, tracking</text></g>
<line class="arr" x1="340" y1="98" x2="340" y2="122" marker-end="url(#arrow)"/>
<line class="arr" x1="340" y1="184" x2="340" y2="208" marker-end="url(#arrow)"/>
<line class="arr" x1="340" y1="270" x2="340" y2="294" marker-end="url(#arrow)"/>
<line class="arr" x1="340" y1="356" x2="340" y2="380" marker-end="url(#arrow)"/>
<path class="arr" d="M492 412 L550 412 L550 154 L496 154" fill="none" stroke-dasharray="4 3" marker-end="url(#arrow)"/>
</svg>